<?xml version="1.0" encoding="UTF-8" standalone="no"?>
<!-- Created with Inkscape (http://www.inkscape.org/) -->

<svg
   xmlns:dc="http://purl.org/dc/elements/1.1/"
   xmlns:cc="http://creativecommons.org/ns#"
   xmlns:rdf="http://www.w3.org/1999/02/22-rdf-syntax-ns#"
   xmlns:svg="http://www.w3.org/2000/svg"
   xmlns="http://www.w3.org/2000/svg"
   xmlns:sodipodi="http://sodipodi.sourceforge.net/DTD/sodipodi-0.dtd"
   xmlns:inkscape="http://www.inkscape.org/namespaces/inkscape"
   width="3703.02"
   height="515"
   id="svg3197"
   version="1.1"
   inkscape:version="0.48.1 "
   sodipodi:docname="Neues Dokument 3">
  <defs
     id="defs3199">
    <clipPath
       clipPathUnits="userSpaceOnUse"
       id="clipPath38">
      <path
         inkscape:connector-curvature="0"
         d="m 311.811,540.278 188.032,0 0,30.903 -188.032,0 0,-30.903 z"
         id="path40" />
    </clipPath>
  </defs>
  <sodipodi:namedview
     id="base"
     pagecolor="#ffffff"
     bordercolor="#666666"
     borderopacity="1.0"
     inkscape:pageopacity="0.0"
     inkscape:pageshadow="2"
     inkscape:zoom="0.42039331"
     inkscape:cx="1851.51"
     inkscape:cy="257.5"
     inkscape:document-units="px"
     inkscape:current-layer="layer1"
     showgrid="false"
     fit-margin-top="0"
     fit-margin-left="0"
     fit-margin-right="0"
     fit-margin-bottom="0"
     inkscape:window-width="1680"
     inkscape:window-height="990"
     inkscape:window-x="-4"
     inkscape:window-y="-4"
     inkscape:window-maximized="1" />
  <metadata
     id="metadata3202">
    <rdf:RDF>
      <cc:Work
         rdf:about="">
        <dc:format>image/svg+xml</dc:format>
        <dc:type
           rdf:resource="http://purl.org/dc/dcmitype/StillImage" />
        <dc:title></dc:title>
      </cc:Work>
    </rdf:RDF>
  </metadata>
  <g
     inkscape:label="Ebene 1"
     inkscape:groupmode="layer"
     id="layer1"
     transform="translate(-128.64932,-1.415033)">
    <g
       id="g34"
       transform="matrix(21.258955,0,0,-21.258955,-6643.7175,12080.802)">
      <g
         id="g36"
         clip-path="url(#clipPath38)">
        <g
           id="g42"
           transform="translate(406.8734,551.6272)">
          <path
             d="m 0,0 0,4.579 -8.625,0 0,-2.791 5.677,0 0,-1.757 c 0,-3.136 -2.258,-4.578 -5.206,-4.578 -3.231,0 -5.457,1.85 -5.457,5.017 l 0,7.402 c 0,3.418 2.352,5.237 5.331,5.237 3.042,0 5.332,-1.16 5.332,-4.39 l 0,-0.408 2.948,0 0,0.721 c 0,4.861 -3.701,6.837 -8.217,6.837 -4.924,0 -8.531,-3.042 -8.531,-8.154 l 0,-7.433 c 0,-4.955 3.826,-7.558 8.531,-7.558 C -3.732,-7.276 0,-4.955 0,0"
             style="fill:#3b3631;fill-opacity:1;fill-rule:nonzero;stroke:none"
             id="path44"
             inkscape:connector-curvature="0" />
        </g>
        <g
           id="g46"
           transform="translate(361.9357,556.746)">
          <path
             d="m 0,0 c -0.873,-1.039 -1.31,-2.321 -1.31,-3.846 0,-1.249 0.29,-2.418 0.871,-3.506 0.58,-1.089 1.376,-2.009 2.387,-2.76 1.011,-0.752 2.075,-1.324 3.191,-1.716 1.116,-0.392 2.575,-0.588 4.376,-0.588 2.222,0 4.103,0.331 5.645,0.994 1.541,0.663 2.854,1.68 3.937,3.05 1.083,1.371 1.625,2.791 1.625,4.261 0,1.956 -0.885,3.558 -2.653,4.807 1.846,0.067 3.28,0.293 4.302,0.68 1.022,0.387 1.867,1.05 2.536,1.989 0.669,0.939 1.003,1.978 1.003,3.117 0,1.204 -0.389,2.235 -1.168,3.091 -0.78,0.857 -1.755,1.285 -2.927,1.285 -1.138,0 -2.074,-0.298 -2.809,-0.895 -0.735,-0.597 -1.103,-1.271 -1.103,-2.023 0,-0.475 0.144,-0.889 0.431,-1.243 0.288,-0.354 0.708,-0.53 1.26,-0.53 0.464,0 0.854,0.154 1.169,0.464 0.315,0.309 0.472,0.668 0.472,1.077 0,0.343 -0.127,0.697 -0.381,1.061 -0.199,0.288 -0.298,0.508 -0.298,0.663 0,0.243 0.102,0.423 0.306,0.539 0.205,0.116 0.512,0.174 0.92,0.174 0.829,0 1.514,-0.284 2.056,-0.854 C 24.379,8.722 24.65,7.996 24.65,7.112 24.65,5.62 24.042,4.509 22.827,3.78 21.611,3.039 19.661,2.669 16.975,2.669 c -2.995,0 -5.062,-0.558 -6.2,-1.674 -1.138,-1.117 -1.707,-2.354 -1.707,-3.714 0,-0.928 0.323,-1.71 0.97,-2.345 0.646,-0.636 1.417,-0.954 2.312,-0.954 0.751,0 1.367,0.233 1.848,0.697 0.481,0.464 0.721,1.044 0.721,1.74 0,0.486 -0.143,0.865 -0.43,1.136 -0.288,0.271 -0.625,0.406 -1.012,0.406 -0.409,0 -0.746,-0.157 -1.011,-0.472 -0.265,-0.315 -0.398,-0.716 -0.398,-1.202 0,-0.056 0.006,-0.155 0.017,-0.299 l 0.017,-0.199 c 0,-0.464 -0.216,-0.696 -0.647,-0.696 -0.376,0 -0.741,0.199 -1.094,0.597 -0.354,0.398 -0.531,0.906 -0.531,1.525 0,1.028 0.489,1.884 1.467,2.569 0.978,0.686 2.092,1.028 3.34,1.028 1.548,0 2.774,-0.439 3.681,-1.318 0.906,-0.878 1.359,-1.914 1.359,-3.108 0,-1.79 -0.92,-3.329 -2.76,-4.617 -1.84,-1.287 -4.053,-1.931 -6.639,-1.931 -2.73,0 -5.012,0.821 -6.846,2.462 -1.835,1.641 -2.752,3.384 -2.752,5.23 0,0.95 0.312,1.771 0.936,2.462 0.625,0.69 1.285,1.036 1.981,1.036 0.542,0 1.094,-0.243 1.658,-0.73 0.531,-0.453 0.967,-0.679 1.31,-0.679 0.309,0 0.544,0.099 0.704,0.298 0.16,0.199 0.241,0.409 0.241,0.63 0,0.884 -0.763,1.326 -2.288,1.326 C 4.99,1.873 4.81,1.934 4.683,2.056 4.556,2.177 4.415,2.439 4.261,2.843 4.105,3.246 4.028,3.741 4.028,4.327 c 0,1.303 0.533,2.461 1.6,3.472 1.067,1.012 2.213,1.517 3.44,1.517 0.762,0 1.414,-0.207 1.956,-0.621 C 11.565,8.28 11.836,7.742 11.836,7.078 11.836,6.636 11.747,6.2 11.571,5.769 11.46,5.504 11.405,5.332 11.405,5.255 c 0,-0.21 0.1,-0.315 0.299,-0.315 0.408,0 0.798,0.282 1.168,0.845 0.37,0.564 0.555,1.177 0.555,1.84 0,0.884 -0.383,1.644 -1.152,2.28 -0.768,0.635 -1.726,0.953 -2.876,0.953 -1.028,0 -2.019,-0.276 -2.975,-0.829 C 5.468,9.476 4.68,8.75 4.061,7.849 3.443,6.948 3.133,5.973 3.133,4.923 c 0,-0.928 0.249,-1.928 0.746,-3 C 2.166,1.68 0.873,1.039 0,0"
             style="fill:#a39267;fill-opacity:1;fill-rule:nonzero;stroke:none"
             id="path48"
             inkscape:connector-curvature="0" />
        </g>
        <g
           id="g50"
           transform="translate(339.2326,544.7275)">
          <path
             d="m 0,0 0,22.361 -4.203,0 -5.896,-14.332 -0.062,0 -5.959,14.332 -4.171,0 0,-22.361 2.979,0 0,17.531 0.094,0 5.802,-13.768 2.446,0 5.834,13.8 0.125,0 L -3.011,0 0,0 z m 21.138,0 -8.594,13.235 8.155,9.126 -3.701,0 -9.722,-11.102 -0.032,0 0,11.102 -3.073,0 0,-22.361 3.073,0 0,7.652 3.231,3.419 L 17.468,0 l 3.67,0 z"
             style="fill:#3b3631;fill-opacity:1;fill-rule:nonzero;stroke:none"
             id="path52"
             inkscape:connector-curvature="0" />
        </g>
        <g
           id="g54"
           transform="translate(416.5327,544.9186)">
          <path
             d="m 0,0 0,5.106 -0.591,0 0,-2.206 -2.531,0 0,2.206 -0.584,0 0,-5.106 0.591,0 0,2.385 2.524,0 L -0.591,0 0,0 z M 5.474,0 3.635,5.142 3.079,5.142 1.212,0 1.818,0 2.322,1.468 4.349,1.468 4.861,0 5.474,0 z m -1.298,1.962 -1.688,0 0.837,2.413 0.014,0 0.837,-2.413 z M 11.207,0 l 0,5.106 -0.858,0 -1.392,-3.309 -0.022,0 -1.385,3.309 -0.857,0 0,-5.106 0.569,0 0,4.311 0.029,0 1.413,-3.316 0.469,0 1.428,3.323 0.029,0 0,-4.318 0.577,0 z m 5.077,1.446 c 0,0.588 -0.346,1.046 -0.952,1.196 l 0,0.022 c 0.461,0.172 0.8,0.594 0.8,1.153 0,0.852 -0.591,1.289 -1.457,1.289 l -1.896,0 0,-5.106 1.89,0 c 0.793,0 1.615,0.458 1.615,1.446 m -0.779,2.313 c 0,-0.615 -0.426,-0.895 -0.967,-0.895 l -1.175,0 0,1.733 1.219,0 c 0.541,0 0.93,-0.229 0.93,-0.838 l -0.007,0 z m 0.137,-2.305 c 0,-0.659 -0.433,-0.953 -1.039,-0.953 l -1.24,0 0,1.876 1.197,0 c 0.606,0 1.082,-0.286 1.082,-0.923 m 5.632,0.064 0,3.588 -0.577,0 0,-3.559 c 0,-0.781 -0.613,-1.117 -1.247,-1.117 -0.693,0 -1.277,0.386 -1.277,1.124 l 0,3.552 -0.598,0 0,-3.645 c 0,-1.096 0.937,-1.547 1.824,-1.547 0.916,0 1.875,0.501 1.875,1.604 M 26.387,0 24.937,2.077 c 0.822,0.157 1.277,0.723 1.277,1.518 0,0.508 -0.202,0.916 -0.548,1.181 -0.296,0.222 -0.678,0.33 -1.14,0.33 l -1.766,0 0,-5.106 0.591,0 0,2.026 0.966,0 L 25.702,0 26.387,0 z m -0.779,3.595 c 0,-0.716 -0.425,-1.067 -1.233,-1.067 l -1.031,0 0,2.076 1.016,0 c 0.729,0 1.255,-0.329 1.255,-1.009 l -0.007,0 z m 5.726,-2.027 0,1.031 -1.861,0 0,-0.53 1.298,0 0,-0.537 c 0,-0.744 -0.504,-1.11 -1.283,-1.11 -0.815,0 -1.32,0.466 -1.32,1.239 l 0,1.74 c 0,0.802 0.505,1.282 1.291,1.282 0.815,0 1.291,-0.344 1.291,-1.002 l 0,-0.115 0.562,0 0,0.186 c 0,0.924 -0.757,1.447 -1.831,1.447 -1.118,0 -1.919,-0.709 -1.919,-1.848 l 0,-1.733 c 0,-1.124 0.837,-1.704 1.904,-1.704 1.053,0 1.868,0.523 1.868,1.654"
             style="fill:#3b3631;fill-opacity:1;fill-rule:nonzero;stroke:none"
             id="path56"
             inkscape:connector-curvature="0" />
        </g>
        <g
           id="g58"
           transform="translate(416.4895,553.1865)">
          <path
             d="m 0,0 -1.954,2.986 1.896,2.12 -0.692,0 -2.322,-2.621 -0.007,0 0,2.621 -0.584,0 0,-5.106 0.584,0 0,1.819 0.728,0.773 L -0.678,0 0,0 z m 4.832,1.518 0,3.588 -0.577,0 0,-3.559 C 4.255,0.766 3.642,0.43 3.007,0.43 2.315,0.43 1.731,0.816 1.731,1.554 l 0,3.552 -0.599,0 0,-3.645 c 0,-1.096 0.938,-1.547 1.825,-1.547 0.916,0 1.875,0.501 1.875,1.604 m 5.185,-1.532 0,5.12 -0.541,0 0,-4.039 -0.022,0 -2.545,4.039 -0.592,0 0,-5.106 0.548,0 0,4.125 0.015,0 2.589,-4.139 0.548,0 z m 4.997,1.46 c 0,0.738 -0.483,1.11 -1.045,1.297 -0.087,0.028 -0.981,0.308 -1.068,0.336 -0.411,0.122 -0.713,0.365 -0.713,0.781 0,0.537 0.512,0.83 1.038,0.83 0.577,0 0.952,-0.207 1.197,-0.716 l 0.498,0.229 c -0.296,0.731 -0.902,0.989 -1.702,0.989 -0.916,0 -1.637,-0.509 -1.637,-1.425 0,-0.623 0.44,-1.01 0.952,-1.189 0.079,-0.029 0.951,-0.294 1.031,-0.322 0.476,-0.129 0.836,-0.373 0.836,-0.881 0,-0.659 -0.62,-0.953 -1.182,-0.953 -0.736,0 -1.154,0.423 -1.306,0.974 L 11.329,1.26 c 0.195,-0.838 0.873,-1.346 1.883,-1.346 0.987,0 1.802,0.537 1.802,1.532 m 4.587,3.144 0,0.516 -3.57,0 0,-0.516 1.486,0 0,-4.59 0.605,0 0,4.59 1.479,0 z m 7.55,-3.072 0,3.588 -0.577,0 0,-3.559 c 0,-0.781 -0.613,-1.117 -1.247,-1.117 -0.693,0 -1.277,0.386 -1.277,1.124 l 0,3.552 -0.598,0 0,-3.645 c 0,-1.096 0.937,-1.547 1.824,-1.547 0.916,0 1.875,0.501 1.875,1.604 m 5.185,-1.532 0,5.12 -0.541,0 0,-4.039 -0.022,0 -2.545,4.039 -0.591,0 0,-5.106 0.548,0 0,4.125 0.014,0 2.589,-4.139 0.548,0 z m 5.214,1.733 0,1.718 c 0,1.081 -0.736,1.669 -1.781,1.669 l -1.861,0 0,-5.106 1.868,0 C 36.8,0 37.55,0.644 37.55,1.719 M 36.952,1.683 c 0,-0.63 -0.383,-1.167 -1.205,-1.167 l -1.255,0 0,4.074 1.212,0 c 0.844,0 1.248,-0.515 1.248,-1.189 l 0,-1.718 z m 8.393,-0.115 0,1.031 -1.86,0 0,-0.53 1.298,0 0,-0.537 c 0,-0.744 -0.505,-1.11 -1.284,-1.11 -0.815,0 -1.32,0.466 -1.32,1.239 l 0,1.74 c 0,0.802 0.505,1.282 1.292,1.282 0.814,0 1.291,-0.344 1.291,-1.002 l 0,-0.115 0.562,0 0,0.186 c 0,0.924 -0.758,1.447 -1.832,1.447 -1.118,0 -1.918,-0.709 -1.918,-1.848 l 0,-1.733 c 0,-1.124 0.836,-1.704 1.904,-1.704 1.053,0 1.867,0.523 1.867,1.654 M 49.975,0 l 0,0.516 -2.553,0 0,1.876 2.056,0 0,0.508 -2.056,0 0,1.69 2.546,0 0,0.516 -3.13,0 0,-5.106 3.137,0 z m 7.168,5.106 -0.569,0 -1.068,-4.211 -0.021,0 -1.075,4.211 -0.584,0 -1.096,-4.204 -0.029,0 -1.045,4.204 -0.599,0 1.363,-5.142 0.57,0 1.103,4.204 0.021,0 1.089,-4.204 0.563,0 1.377,5.142 z M 61.478,0 l 0,0.516 -2.553,0 0,1.876 2.055,0 0,0.508 -2.055,0 0,1.69 2.545,0 0,0.516 -3.13,0 0,-5.106 3.138,0 z m 5.083,0 -1.449,2.077 c 0.822,0.157 1.276,0.723 1.276,1.518 0,0.508 -0.201,0.916 -0.547,1.181 -0.296,0.222 -0.678,0.33 -1.14,0.33 l -1.767,0 0,-5.106 0.592,0 0,2.026 0.966,0 L 65.876,0 66.561,0 z m -0.778,3.595 c 0,-0.716 -0.426,-1.067 -1.233,-1.067 l -1.032,0 0,2.076 1.017,0 c 0.729,0 1.255,-0.329 1.255,-1.009 l -0.007,0 z m 5.589,-2.149 c 0,0.588 -0.346,1.046 -0.952,1.196 l 0,0.022 c 0.461,0.172 0.8,0.594 0.8,1.153 0,0.852 -0.591,1.289 -1.457,1.289 l -1.896,0 0,-5.106 1.889,0 c 0.793,0 1.616,0.458 1.616,1.446 m -0.779,2.313 c 0,-0.615 -0.426,-0.895 -0.967,-0.895 l -1.175,0 0,1.733 1.219,0 c 0.54,0 0.93,-0.229 0.93,-0.838 l -0.007,0 z M 70.73,1.454 c 0,-0.659 -0.433,-0.953 -1.039,-0.953 l -1.24,0 0,1.876 1.197,0 c 0.606,0 1.082,-0.286 1.082,-0.923 M 75.886,0 l 0,0.516 -2.553,0 0,1.876 2.056,0 0,0.508 -2.056,0 0,1.69 2.546,0 0,0.516 -3.13,0 0,-5.106 3.137,0 z"
             style="fill:#3b3631;fill-opacity:1;fill-rule:nonzero;stroke:none"
             id="path60"
             inkscape:connector-curvature="0" />
        </g>
        <g
           id="g62"
           transform="translate(417.3405,561.4545)">
          <path
             d="m 0,0 0,5.106 -0.858,0 -1.392,-3.309 -0.022,0 -1.384,3.309 -0.858,0 0,-5.106 0.569,0 0,4.311 0.029,0 1.414,-3.316 0.469,0 1.427,3.323 0.029,0 L -0.577,0 0,0 z m 5.185,1.518 0,3.588 -0.577,0 0,-3.559 C 4.608,0.766 3.995,0.43 3.361,0.43 2.668,0.43 2.084,0.816 2.084,1.554 l 0,3.552 -0.599,0 0,-3.645 c 0,-1.096 0.938,-1.547 1.825,-1.547 0.916,0 1.875,0.501 1.875,1.604 m 4.911,-0.071 c 0,0.737 -0.483,1.109 -1.045,1.296 C 8.964,2.771 8.07,3.051 7.983,3.079 7.572,3.201 7.269,3.444 7.269,3.86 c 0,0.537 0.512,0.83 1.039,0.83 0.577,0 0.952,-0.207 1.197,-0.716 l 0.497,0.229 C 9.707,4.934 9.101,5.192 8.3,5.192 7.384,5.192 6.664,4.683 6.664,3.767 6.664,3.144 7.103,2.757 7.615,2.578 7.694,2.549 8.567,2.284 8.647,2.256 9.122,2.127 9.483,1.883 9.483,1.375 9.483,0.716 8.863,0.422 8.3,0.422 7.565,0.422 7.147,0.845 6.995,1.396 L 6.411,1.26 c 0.195,-0.838 0.873,-1.346 1.882,-1.346 0.988,0 1.803,0.537 1.803,1.533 M 14.589,0 l 0,0.516 -2.553,0 0,1.876 2.055,0 0,0.508 -2.055,0 0,1.69 2.546,0 0,0.516 -3.13,0 0,-5.106 3.137,0 z m 5.07,1.518 0,3.588 -0.577,0 0,-3.559 c 0,-0.781 -0.614,-1.117 -1.248,-1.117 -0.692,0 -1.277,0.386 -1.277,1.124 l 0,3.552 -0.598,0 0,-3.645 c 0,-1.096 0.937,-1.547 1.824,-1.547 0.916,0 1.876,0.501 1.876,1.604 M 25.658,0 l 0,5.106 -0.858,0 -1.392,-3.309 -0.021,0 -1.385,3.309 -0.858,0 0,-5.106 0.57,0 0,4.311 0.028,0 1.414,-3.316 0.469,0 1.428,3.323 0.028,0 0,-4.318 0.577,0 z m 7.378,4.59 0,0.516 -3.101,0 0,-5.106 0.591,0 0,2.385 2.005,0 0,0.508 -2.005,0 0,1.697 2.51,0 z m 3.973,1.805 -0.555,0 0,-0.752 0.555,0 0,0.752 z m -1.363,0 -0.555,0 0,-0.752 0.555,0 0,0.752 z m 2.243,-4.877 0,3.588 -0.577,0 0,-3.559 c 0,-0.781 -0.613,-1.117 -1.247,-1.117 -0.693,0 -1.277,0.386 -1.277,1.124 l 0,3.552 -0.598,0 0,-3.645 c 0,-1.096 0.937,-1.547 1.824,-1.547 0.916,0 1.875,0.501 1.875,1.604 M 43.002,0 41.552,2.077 c 0.822,0.157 1.277,0.723 1.277,1.518 0,0.508 -0.202,0.916 -0.548,1.181 -0.296,0.222 -0.678,0.33 -1.14,0.33 l -1.766,0 0,-5.106 0.591,0 0,2.027 0.966,0 L 42.317,0 43.002,0 z m -0.779,3.595 c 0,-0.716 -0.425,-1.067 -1.233,-1.067 l -1.032,0 0,2.076 1.017,0 c 0.729,0 1.255,-0.329 1.255,-1.009 l -0.007,0 z"
             style="fill:#3b3631;fill-opacity:1;fill-rule:nonzero;stroke:none"
             id="path64"
             inkscape:connector-curvature="0" />
        </g>
      </g>
    </g>
  </g>
</svg>
