<svg xmlns="http://www.w3.org/2000/svg" width="728" height="289">
  <g fill="#000307" fill-rule="evenodd">
    <path d="M515.154 151.632L405.458 288.5 727.5 151.632H515.154M314.883 151.632l83.53 126.804 101.645-126.804H314.883M524.211 140.562h190.206L603.715 41.936l-79.504 98.626M3.936 27.676V.481h5.585v27.437c0 7.528 4.856 11.656 11.898 11.656 7.041 0 11.898-3.885 11.898-11.656V.481h5.584v27.195c0 10.683-7.284 17.239-17.482 17.239S3.936 38.602 3.936 27.676M72.652 25.248h-4.856V44.43h-5.585V.481h13.112c8.499 0 14.084 4.856 14.084 12.383 0 6.313-3.886 10.684-10.441 11.898L94.263 44.43h-6.799L72.652 25.248zm2.186-5.1c5.827 0 8.741-2.67 8.741-7.284 0-4.613-2.914-7.284-8.741-7.284h-7.042v14.568h7.042zM113.445.481h14.569c8.498 0 12.869 5.341 12.869 11.412 0 4.37-1.7 7.284-4.613 9.227 4.37 1.699 7.527 5.099 7.527 10.926 0 8.013-6.071 12.384-15.297 12.384h-15.298V.481h.243zm14.569 18.939c4.613 0 7.527-2.914 7.527-6.799 0-3.642-2.671-6.799-7.527-6.799h-8.984v13.841h8.984v-.243zm1.457 19.911c5.827 0 8.741-3.157 8.741-7.528 0-4.37-2.914-7.527-8.741-7.527H119.03v15.055h10.441zM178.762.481h16.997V44.43h-5.585V33.018h-21.125l-5.584 11.412h-6.071L178.762.481zm-7.284 27.195h18.696V5.822h-8.255l-10.441 21.854zM219.555-.005V44.43h5.584V12.378l25.739 23.311v8.741h5.584V.481h-5.584v27.923L219.555-.005M.294 84.494c0-12.869 9.955-22.582 22.582-22.582 5.584 0 10.441 1.7 14.326 5.099l-3.4 4.371c-2.914-2.428-6.556-4.128-10.926-4.128-9.713 0-16.754 7.527-16.754 16.997 0 9.47 7.041 16.997 16.754 16.997 4.37 0 8.012-1.7 10.926-4.128l3.4 4.371c-3.885 3.399-8.742 5.099-14.326 5.099C10.007 106.833.294 97.12.294 84.494M53.956 84.494c0-12.869 9.955-22.582 22.581-22.582 12.627 0 22.582 9.713 22.582 22.582 0 12.869-9.955 22.582-22.582 22.582-12.626 0-22.581-9.956-22.581-22.582m39.093 0c0-9.713-7.042-16.997-16.754-16.997-9.713 0-16.755 7.527-16.755 16.997 0 9.47 7.042 16.997 16.755 16.997 9.712 0 16.754-7.527 16.754-16.997M119.515 61.912l21.368 23.553 21.61-23.553v44.435h-5.827V75.753l-15.783 17.725L125.1 75.753v30.594h-5.585V61.912M186.046 62.398h12.384c9.227 0 15.297 5.099 15.297 13.355 0 8.255-6.07 13.354-15.297 13.354h-6.799v16.997h-5.585V62.398zm12.384 21.61c6.313 0 9.712-2.913 9.712-8.255 0-5.099-3.399-8.256-9.712-8.256h-6.556v16.511h6.556zM233.152 62.398h5.828v38.607h18.453v5.342h-24.281V62.398M276.373 62.398h25.495v5.585H282.2v13.112h16.026v5.584H282.2v14.326h19.668v5.342h-25.495V62.398M336.348 85.708l-11.17 20.639h-6.07l13.841-25.738-13.112-18.211h6.556l14.326 19.911 10.441-19.911h6.07l-13.112 24.767 13.84 19.182h-6.798l-14.812-20.639M383.211 106.347V62.398h-5.585v43.949zM415.262 67.983h-12.626v-5.585h30.595v5.585h-12.384v38.364h-5.585V67.983M479.608 62.398l-12.384 19.911-12.383-19.911h-6.556l16.026 25.253v18.696h5.584V87.651l16.269-25.253h-6.556M3.936 124.315v43.95h24.039v-5.342H9.521v-38.608H3.936M63.425 124.315l-21.124 43.95h6.07l5.585-11.413h21.125v11.413h5.584v-43.95h-17.24zm3.157 5.585h8.256v21.853H56.141L66.582 129.9zM104.218 124.315h14.569c8.498 0 12.869 5.342 12.869 11.413 0 4.37-1.7 7.284-4.613 9.227 4.37 1.699 7.527 5.099 7.527 10.926 0 8.013-6.07 12.384-15.297 12.384h-15.298v-43.95h.243zm14.569 18.94c4.613 0 7.527-2.914 7.527-6.799 0-3.642-2.671-6.799-7.527-6.799h-8.984v13.841h8.984v-.243zm1.457 19.911c5.827 0 8.741-3.157 8.741-7.528 0-4.37-2.914-7.527-8.741-7.527h-10.441v15.055h10.441z"/>
  </g>
</svg>