<?xml version="1.0" standalone="no"?>
<!DOCTYPE svg PUBLIC "-//W3C//DTD SVG 20010904//EN"
 "http://www.w3.org/TR/2001/REC-SVG-20010904/DTD/svg10.dtd">
<svg version="1.0" xmlns="http://www.w3.org/2000/svg"
 width="260.000000pt" height="260.000000pt" viewBox="0 0 260.000000 260.000000"
 preserveAspectRatio="xMidYMid meet">
<metadata>
Created by potrace 1.11, written by Peter Selinger 2001-2013
</metadata>
<g transform="translate(0.000000,260.000000) scale(0.100000,-0.100000)"
fill="#000000" stroke="none">
<path d="M250 1320 l0 -880 695 0 695 0 -2 172 -3 172 -511 0 -511 0 -1 691
c0 379 -1 698 -1 708 -1 15 -17 17 -181 17 l-180 0 0 -880z"/>
<path d="M950 2030 c0 -129 3 -170 13 -171 6 -1 237 -2 512 -3 l500 -1 2 -690
c1 -379 2 -698 2 -707 1 -16 17 -18 181 -18 l180 0 0 880 0 880 -695 0 -695 0
0 -170z"/>
</g>
</svg>
