<?xml version="1.0" standalone="no"?>
<!DOCTYPE svg PUBLIC "-//W3C//DTD SVG 20010904//EN"
 "http://www.w3.org/TR/2001/REC-SVG-20010904/DTD/svg10.dtd">
<svg version="1.0" xmlns="http://www.w3.org/2000/svg"
 width="260.000000pt" height="260.000000pt" viewBox="0 0 260.000000 260.000000"
 preserveAspectRatio="xMidYMid meet">
<metadata>
Created by potrace 1.11, written by Peter Selinger 2001-2013
</metadata>
<g transform="translate(0.000000,260.000000) scale(0.100000,-0.100000)"
fill="#000000" stroke="none">
<path d="M1092 1997 l-1 -184 397 2 c218 0 403 -1 410 -3 9 -3 12 -139 12
-632 l0 -629 160 1 160 0 0 814 0 814 -569 0 -569 0 0 -183z"/>
<path d="M360 1223 l0 -813 565 0 565 0 1 33 c1 39 1 284 0 312 -1 20 -7 20
-403 20 l-403 0 -5 630 -5 630 -157 0 -158 0 0 -812z"/>
</g>
</svg>
