<?xml version="1.0" standalone="no"?>
<!DOCTYPE svg PUBLIC "-//W3C//DTD SVG 20010904//EN"
 "http://www.w3.org/TR/2001/REC-SVG-20010904/DTD/svg10.dtd">
<svg version="1.0" xmlns="http://www.w3.org/2000/svg"
 width="260.000000pt" height="260.000000pt" viewBox="0 0 260.000000 260.000000"
 preserveAspectRatio="xMidYMid meet">
<metadata>
Created by potrace 1.11, written by Peter Selinger 2001-2013
</metadata>
<g transform="translate(0.000000,260.000000) scale(0.100000,-0.100000)"
fill="#000000" stroke="none">
<path d="M360 1260 l0 -820 645 0 645 0 0 160 0 160 -97 0 c-54 1 -268 1 -475
1 -351 -1 -378 1 -379 17 0 9 -1 306 -1 660 l-1 642 -168 0 -169 0 0 -820z"/>
<path d="M1060 2001 l0 -78 500 0 c275 0 503 -2 506 -6 3 -3 5 -336 5 -741 l0
-736 79 0 80 0 0 820 0 820 -585 0 -585 0 0 -79z"/>
</g>
</svg>
